<?xml version="1.0" encoding="UTF-8"?> <svg xmlns="http://www.w3.org/2000/svg" width="293" height="68" viewBox="0 0 293 68" fill="none"> <path fill-rule="evenodd" clip-rule="evenodd" d="M86.4032 20.939V8.59568H90.8009V6.80957H79.9585V8.59568H84.3562V20.939H86.4032ZM95.1186 13.8743C95.1186 11.0037 96.6538 8.35647 99.7882 8.35647C102.907 8.35647 104.458 11.0037 104.458 13.8743C104.458 16.681 103.035 19.3921 99.7882 19.3921C96.5419 19.3921 95.1186 16.681 95.1186 13.8743ZM92.9757 13.8743C92.9757 18.1642 95.4705 21.1782 99.7882 21.1782C104.106 21.1782 106.601 18.1642 106.601 13.8743C106.601 9.68011 104.09 6.57035 99.7882 6.57035C95.4864 6.57035 92.9757 9.68011 92.9757 13.8743ZM112.406 20.939V8.70731H112.454L117.139 20.9231H119.122L123.808 8.70731H123.856V20.9231H125.887V6.80957H122.544L118.179 18.5469L113.733 6.80957H110.391V20.939H112.406ZM140.327 7.17636C139.288 6.71388 138.264 6.57035 137.145 6.57035C132.827 6.57035 129.661 9.4409 129.661 13.8105C129.661 18.3077 132.651 21.1782 137.129 21.1782C137.96 21.1782 139.288 21.1304 140.359 20.6679L140.231 18.7064C139.544 19.137 138.136 19.3921 137.145 19.3921C134.202 19.3921 131.804 17.1914 131.804 13.8743C131.804 10.7007 133.978 8.35647 137.241 8.35647C138.296 8.35647 139.272 8.61163 140.167 9.15384L140.327 7.17636ZM145.796 20.939V14.0178L152.113 20.939H155.072L147.891 13.4916L154.544 6.80957H151.841L145.796 13.0131V6.80957H143.765V20.939H145.796ZM160.269 20.939L166.969 10.015H166.985V20.939H169.016V6.80957H166.921L160.221 17.8133H160.205V6.80957H158.174V20.939H160.269ZM175.781 20.939L182.481 10.015H182.497V20.939H184.528V6.80957H182.433L175.733 17.8133H175.717V6.80957H173.686V20.939H175.781ZM181.634 3.49249C181.25 3.97092 179.875 4.24202 179.091 4.24202C178.355 4.24202 176.98 3.97092 176.612 3.49249L176.325 5.29456C176.804 5.61351 178.371 5.83677 179.091 5.83677C179.843 5.83677 181.442 5.61351 181.938 5.29456L181.634 3.49249ZM90.4491 44.3499H92.48V30.2204H81.6376V44.3499H83.6686V32.0066H90.4491V44.3499ZM98.4929 37.2852C98.4929 34.4146 100.028 31.7674 103.162 31.7674C106.281 31.7674 107.832 34.4146 107.832 37.2852C107.832 40.0919 106.409 42.803 103.162 42.803C99.9161 42.803 98.4929 40.0919 98.4929 37.2852ZM96.35 37.2852C96.35 41.575 98.8447 44.5891 103.162 44.5891C107.48 44.5891 109.975 41.575 109.975 37.2852C109.975 33.091 107.464 29.9812 103.162 29.9812C98.8607 29.9812 96.35 33.091 96.35 37.2852ZM114.085 44.5891C117.715 44.5891 117.923 39.773 117.923 36.0732V32.0066H122.656V44.3499H124.687V30.2204H115.908V35.3396C115.908 38.3537 115.78 42.803 113.733 42.803C113.349 42.803 112.917 42.7711 112.454 42.5957V44.334C112.853 44.5094 113.413 44.5891 114.085 44.5891ZM131.452 44.3499L138.152 33.4259H138.168V44.3499H140.199V30.2204H138.104L131.404 41.2242H131.388V30.2204H129.357V44.3499H131.452ZM149.634 44.3499V32.0066H154.032V30.2204H143.19V32.0066H147.587V44.3499H149.634ZM164.97 44.3499V42.5638H159.069V37.9071H164.443V36.121H159.069V31.9906H164.97V30.2045H157.039V44.334H164.97V44.3499ZM169.88 44.3499L173.926 38.3537L178.1 44.3499H180.658L175.429 36.9662L180.195 30.2204H177.876L174.118 35.6426L170.344 30.2204H167.913L172.662 36.9981L167.449 44.3499H169.88ZM185.632 44.3499V37.9071H192.412V44.3499H194.443V30.2204H192.412V36.137H185.632V30.2204H183.601V44.3499H185.632ZM201.208 44.3499L207.908 33.4259H207.924V44.3499H209.955V30.2204H207.86L201.16 41.2242H201.144V30.2204H199.113V44.3499H201.208ZM220.19 36.7111C219.87 36.8068 219.486 36.8546 219.07 36.8546C216.448 36.8546 215.6 35.1801 215.6 32.485V30.2204H213.569V32.7561C213.569 36.727 215.584 38.6407 219.07 38.6407C219.454 38.6407 219.838 38.6248 220.19 38.561V44.3499H222.221V30.2204H220.19V36.7111ZM234.742 44.3499V42.5638H228.841V37.9071H234.214V36.121H228.841V31.9906H234.742V30.2045H226.81V44.334H234.742V44.3499ZM248.799 30.5872C247.759 30.1248 246.736 29.9812 245.617 29.9812C241.299 29.9812 238.132 32.8518 238.132 37.2214C238.132 41.7186 241.123 44.5891 245.601 44.5891C246.432 44.5891 247.759 44.5413 248.831 44.0788L248.703 42.1173C248.015 42.5478 246.608 42.803 245.617 42.803C242.674 42.803 240.275 40.6022 240.275 37.2852C240.275 34.1116 242.45 31.7674 245.713 31.7674C246.768 31.7674 247.743 32.0385 248.639 32.5647L248.799 30.5872ZM254.252 44.3499V37.4287L260.569 44.3499H263.527L256.347 36.9024L263 30.2204H260.297L254.252 36.44V30.2204H252.221V44.3499H254.252ZM268.725 44.3499L275.425 33.4259H275.441V44.3499H277.472V30.2204H275.377L268.677 41.2242H268.661V30.2204H266.63V44.3499H268.725ZM284.253 44.3499L290.953 33.4259H290.969V44.3499H293V30.2204H290.905L284.205 41.2242H284.189V30.2204H282.158V44.3499H284.253ZM290.089 26.9034C289.706 27.3818 288.33 27.6529 287.547 27.6529C286.811 27.6529 285.436 27.3977 285.068 26.9034L284.796 28.7054C285.276 29.0244 286.843 29.2477 287.563 29.2477C288.314 29.2477 289.914 29.0244 290.409 28.7054L290.089 26.9034ZM90.8009 53.6313L86.5151 61.9878H86.4511L82.3253 53.6313H79.9585L85.3797 64.0769L85.2038 64.4756C84.8839 65.2092 84.3722 66.0385 83.2528 66.0385C82.869 66.0385 82.5492 65.9587 82.2773 65.879L82.1494 67.7448C82.5332 67.8086 82.885 67.8884 83.5246 67.8884C85.7315 67.8884 86.5311 66.0385 87.1708 64.8743L93.0397 53.6473H90.8009V53.6313ZM98.0931 67.7608V61.318H104.874V67.7608H106.905V53.6313H104.874V59.5319H98.0931V53.6313H96.0621V67.7608H98.0931ZM113.669 67.7608L120.37 56.8368H120.386V67.7608H122.416V53.6313H120.322L113.621 64.6351H113.605V53.6313H111.574V67.7608H113.669ZM130.652 67.7608C133.531 67.7608 136.057 67.0113 136.057 63.9972C136.057 62.0197 134.698 60.7598 132.763 60.6004V60.5525C134.554 60.0901 135.69 59.1332 135.69 57.1876C135.69 54.6041 133.659 53.6313 130.716 53.6313H126.878V67.7608H130.652ZM130.236 61.318C131.98 61.318 133.915 61.621 133.915 63.8058C133.915 65.6876 132.299 66.0863 130.444 66.0863H128.925V61.318H130.236ZM131.036 55.2899C132.235 55.2899 133.659 55.7205 133.659 57.3949C133.659 59.4841 131.98 59.6595 130.029 59.6595H128.909V55.2899H131.036ZM148.307 67.7608V65.9747H142.406V61.318H147.779V59.5319H142.406V55.4015H148.307V53.6154H140.375V67.7448H148.307V67.7608ZM156.063 55.4174C157.294 55.4174 159.181 56.0713 159.181 57.8415C159.181 59.7073 157.598 60.3293 156.335 60.3293H154.32V55.4174H156.063ZM154.336 67.7608V62.1154H156.319C158.862 62.1154 161.324 60.9991 161.324 57.8734C161.324 54.652 158.91 53.6473 156.015 53.6473H152.305V67.7767H154.336V67.7608ZM174.533 53.9981C173.494 53.5356 172.471 53.3921 171.351 53.3921C167.033 53.3921 163.867 56.2627 163.867 60.6323C163.867 65.1295 166.857 68 171.335 68C172.167 68 173.494 67.9522 174.565 67.4897L174.437 65.5281C173.75 65.9587 172.343 66.2139 171.351 66.2139C168.409 66.2139 166.01 64.0131 166.01 60.6961C166.01 57.5225 168.185 55.1782 171.447 55.1782C172.502 55.1782 173.478 55.4334 174.374 55.9756L174.533 53.9981ZM180.051 67.7608L186.751 56.8368H186.767V67.7608H188.798V53.6313H186.703L180.003 64.6351H179.987V53.6313H177.956V67.7608H180.051ZM198.233 67.7608V55.4174H202.631V53.6313H191.788V55.4174H196.186V67.7608H198.233ZM213.569 67.7608V65.9747H207.668V61.318H213.041V59.5319H207.668V55.4015H213.569V53.6154H205.637V67.7448H213.569V67.7608ZM222.541 67.7608V55.4174H226.938V53.6313H216.096V55.4174H220.494V67.7608H222.541Z" fill="#A7A9AC"></path> <path fill-rule="evenodd" clip-rule="evenodd" d="M0 0H20.0056V19.9503H0V0ZM24.0035 0H44.0092V43.8715H24.0035V0ZM47.9911 0H67.9967V19.9503H47.9911V0ZM65.9977 25.9306V65.8152H49.9901V25.9306H65.9977ZM18.0067 25.9306V65.8152H1.99896V25.9306H18.0067ZM41.9942 49.8518V65.8152H26.0025V49.8518H41.9942ZM47.9911 23.9371V67.8086H67.9967V23.9371H47.9911ZM24.0035 47.8583V67.8086H44.0092V47.8583H24.0035ZM0 23.9371V67.8086H20.0056V23.9371H0Z" fill="#A7A9AC"></path> </svg> 